HIERARCHY
ROOT Hips
{
	OFFSET 0.00000 0.00000 0.00000
	CHANNELS 6 Xposition Yposition Zposition Yrotation Zrotation Xrotation 
	JOINT Lumbar
	{
		OFFSET 0 0 0
		CHANNELS 3 Zrotation Xrotation Yrotation
		JOINT Neck
		{
			OFFSET 0.00 0.2701 0.00
			CHANNELS 3 Zrotation Xrotation Yrotation
			End Site
			{
				OFFSET 0.00 0.1379 0.00
			}
		}
		JOINT RightShoulder
		{
			OFFSET 0.0119 0.2289 0.1181
			CHANNELS 3 Zrotation Xrotation Yrotation
			JOINT RightElbow
			{
				OFFSET 0.00 -0.1475 0.00
				CHANNELS 2 Zrotation Yrotation
				JOINT RightWrist
				{
					OFFSET 0.00 -0.1605 0.00
					CHANNELS 2 Zrotation Xrotation
					End Site
					{
						OFFSET 0.0040 -0.1068 0.0006
					}
				}
			}
		}
		JOINT LeftShoulder
		{
			OFFSET 0.0119 0.2289 -0.1181
			CHANNELS 3 Zrotation Xrotation Yrotation
			JOINT LeftElbow
			{
				OFFSET 0.00 -0.1475 0.00
				CHANNELS 2 Zrotation Yrotation
				JOINT LeftWrist
				{
					OFFSET 0.00 -0.1605 0.00
					CHANNELS 2 Zrotation Xrotation
					End Site
					{
						OFFSET 0.0040 -0.1068 -0.0006
					}
				}
			}
		}
	}
	JOINT RightHip
	{
		OFFSET 0.0316 -0.0424 0.0458
		CHANNELS 3 Zrotation Xrotation Yrotation
		JOINT RightKnee
		{
			OFFSET 0.00 -0.2438 0.00
			CHANNELS 1 Zrotation
			JOINT RightAnkle
			{
				OFFSET 0.00 -0.2449 0.00
				CHANNELS 3 Zrotation Xrotation Yrotation
				End Site
				{
					OFFSET 0.1237 -0.0542 0.0051
				}
			}
		}
	}
	JOINT LeftHip
	{
		OFFSET 0.0316 -0.0424 -0.0458
		CHANNELS 3 Zrotation Xrotation Yrotation
		JOINT LeftKnee
		{
			OFFSET 0.00 -0.2438 0.00
			CHANNELS 1 Zrotation
			JOINT LeftAnkle
			{
				OFFSET 0.00 -0.2449 0.00
				CHANNELS 3 Zrotation Xrotation Yrotation
				End Site
				{
					OFFSET 0.1237 -0.0542 -0.0051
				}
			}
		}
	}
}
MOTION
Frames: 33
Frame Time: 0.02
-0.00023 -1e-05 0.0001 -174.77507 -28.82038 1.38352 44.43721 -0.96981 -7.16842 -11.74691 3.28881 -1.16475 -22.73697 -8.05247 4.05926 29.89429 60.27467 -0.46639 -4.30999 -24.32533 7.06395 2.24658 33.41379 -104.20624 14.9866 -2.04538 27.38414 -2.68218 -10.0704 -20.4956 -6.59807 -3.62182 -3.98423 33.1624 4.93879 9.57646 -24.44352 -6.41124 1.97139 3.1498
5e-05 2e-05 0.00012 -174.82621 -28.83919 1.36583 44.4092 -0.96907 -7.16941 -11.76656 3.32267 -1.16569 -22.60575 -7.51991 2.25092 29.83954 67.38821 1.35249 -3.1107 -24.31774 6.90837 2.38214 33.36473 -104.23632 15.0034 -2.03887 27.43313 -2.70119 -10.19804 -20.49876 -6.5881 -3.60756 -3.97708 33.21113 4.91916 9.45472 -24.44509 -6.41304 1.9781 3.15709
0.00034 5e-05 0.00014 -174.87723 -28.85793 1.34814 44.3812 -0.96831 -7.17041 -11.78615 3.35644 -1.16663 -22.47498 -6.98959 0.45043 29.78501 74.47109 3.16353 -1.91657 -24.31007 6.75296 2.5185 33.31573 -104.27395 15.02259 -2.03368 27.48198 -2.72019 -10.32565 -20.50192 -6.57813 -3.5933 -3.96993 33.25976 4.89959 9.33326 -24.44666 -6.41485 1.9848 3.16436
0.00062 8e-05 0.00016 -174.92821 -28.87669 1.3305 44.35326 -0.96757 -7.1714 -11.80573 3.39019 -1.16757 -22.34417 -6.4588 -1.35185 29.73045 81.56078 4.9763 -0.72129 -24.30248 6.59779 2.6539 33.2668 -104.30545 15.0398 -2.02744 27.53082 -2.73916 -10.45297 -20.50507 -6.56819 -3.57908 -3.9628 33.30835 4.88002 9.21188 -24.44823 -6.41665 1.99149 3.17162
0.00091 0.00011 0.00018 -174.97931 -28.89551 1.31287 44.32535 -0.96685 -7.17237 -11.82537 3.42402 -1.16851 -22.21286 -5.92545 -3.16318 29.67562 88.68584 6.79815 0.47993 -24.29501 6.44259 2.78788 33.21787 -104.32579 15.05352 -2.01925 27.57977 -2.75811 -10.58014 -20.50821 -6.55825 -3.56487 -3.95568 33.35703 4.86038 9.09028 -24.44979 -6.41845 1.99819 3.1789
0.00119 0.00014 0.0002 -175.03018 -28.9141 1.29509 44.29716 -0.96602 -7.17345 -11.84486 3.4577 -1.16944 -22.08322 -5.4015 -4.94097 29.62172 95.68057 8.5866 1.65922 -24.28694 6.28681 2.92915 33.16872 -104.39928 15.08407 -2.02027 27.62842 -2.77721 -10.70861 -20.51139 -6.54824 -3.55051 -3.94848 33.40554 4.84098 8.96915 -24.45139 -6.42026 2.00489 3.18615
0.00147 0.00016 0.00022 -175.08141 -28.93312 1.27763 44.26957 -0.9654 -7.17431 -11.86463 3.4916 -1.17038 -21.95044 -4.85945 -6.78328 29.56607 102.92542 10.43909 2.88062 -24.28006 6.13225 3.05603 33.12006 -104.36784 15.08128 -2.00316 27.67762 -2.796 -10.83446 -20.51449 -6.53838 -3.53646 -3.94143 33.45434 4.82112 8.84715 -24.45291 -6.42204 2.01157 3.19344
0.00176 0.00019 0.00024 -175.13239 -28.95176 1.25986 44.24143 -0.96459 -7.17534 -11.88414 3.52535 -1.17132 -21.82044 -4.33365 -8.56794 29.51194 109.94768 12.23472 4.06451 -24.27213 5.97676 3.19538 33.07095 -104.42933 15.1082 -2.00203 27.72634 -2.81506 -10.96249 -20.51767 -6.52839 -3.52214 -3.93426 33.50288 4.80169 8.72603 -24.45451 -6.42385 2.01828 3.2007
0.00204 0.00023 0.00027 -175.18278 -28.96989 1.24176 44.21258 -0.96356 -7.17671 -11.90335 3.55875 -1.17224 -21.69424 -3.82936 -10.27514 29.46003 116.66726 13.95246 5.19755 -24.26268 5.81926 3.35342 33.02126 -104.62106 15.176 -2.0236 27.77439 -2.83457 -11.09423 -20.52095 -6.5182 -3.50744 -3.92689 33.55111 4.78276 8.60563 -24.45617 -6.4257 2.02502 3.2079
0.00233 0.00025 0.00028 -175.23568 -28.99084 1.22568 44.18767 -0.96384 -7.17654 -11.92434 3.59365 -1.17322 -21.54737 -3.20627 -12.407 29.39643 125.03643 16.09314 6.60815 -24.2613 5.67068 3.41433 32.97478 -104.11363 15.02236 -1.92413 27.82606 -2.85184 -11.20777 -20.52366 -6.50902 -3.49474 -3.9205 33.60114 4.76085 8.48 -24.45735 -6.42734 2.03156 3.2154
0.00261 0.00029 0.00031 -175.28383 -29.00588 1.20527 44.15454 -0.96132 -7.17935 -11.94155 3.6257 -1.1741 -21.44334 -2.83062 -13.65643 29.35678 129.9844 17.35772 7.44279 -24.24332 5.50501 3.67335 32.92162 -105.04834 15.32685 -2.07378 27.87022 -2.87358 -11.35766 -20.52754 -6.4978 -3.47796 -3.91213 33.64734 4.74531 8.36614 -24.45964 -6.42941 2.03853 3.22227
0.00289 0.00036 0.00036 -175.31458 -29.00429 1.17352 44.09777 -0.95122 -7.19263 -11.94835 3.64753 -1.17464 -21.46473 -3.16798 -12.34523 29.38968 124.94798 16.05631 6.59908 -24.17585 5.27791 4.53743 32.84932 -110.24731 16.97413 -2.96489 27.89243 -2.90983 -11.62538 -20.53492 -6.48002 -3.44853 -3.8976 33.68311 4.7466 8.27861 -24.46421 -6.43283 2.04651 3.2274
0.00317 0.00045 0.00043 -175.34144 -28.99683 1.13732 44.03293 -0.93826 -7.20851 -11.95138 3.66702 -1.17509 -21.52785 -3.74811 -10.17105 29.4455 116.57509 13.9019 5.19327 -24.09249 5.03644 5.5888 32.7706 -116.83365 19.06402 -4.09498 27.9073 -2.95023 -11.92638 -20.54339 -6.46034 -3.41523 -3.8812 33.71497 4.75437 8.204 -24.47002 -6.43665 2.05496 3.23191
0.00345 0.00053 0.00049 -175.37283 -28.99237 1.10283 43.97251 -0.92653 -7.22165 -11.95613 3.68909 -1.17561 -21.56654 -4.19417 -8.48605 29.48619 110.1332 12.2477 4.11096 -24.01893 4.81096 6.51466 32.69516 -122.58978 20.89752 -5.07853 27.92644 -2.98716 -12.20016 -20.55118 -6.44215 -3.38464 -3.86614 33.74865 4.75966 8.12739 -24.47576 -6.4402 2.06331 3.23671
0.00374 0.00061 0.00053 -175.39225 -28.98659 1.06971 43.90893 -0.91515 -7.24125 -11.96075 3.70448 -1.176 -21.62774 -4.73844 -6.4008 29.54623 101.98152 10.13003 2.74794 -23.9343 4.54518 7.61247 32.61759 -129.20797 22.97167 -6.2246 27.9418 -3.03045 -12.52451 -20.55981 -6.42137 -3.35012 -3.84906 33.78235 4.7632 8.0345 -24.47941 -6.44415 2.07114 3.24145
0.00401 0.00069 0.00063 -175.43605 -28.98204 1.0326 43.85 -0.90231 -7.2482 -11.96485 3.73355 -1.17664 -21.65277 -5.13886 -4.9309 29.57213 96.54035 8.75866 1.82669 -23.86915 4.36035 8.39521 32.54367 -134.33924 24.64128 -7.08643 27.96307 -3.06189 -12.75213 -20.56689 -6.40547 -3.32274 -3.83568 33.81482 4.77168 7.97853 -24.4877 -6.44733 2.08018 3.24617
0.00428 0.00074 0.00087 -175.54511 -28.98347 0.98626 43.80609 -0.8867 -7.21814 -11.96761 3.79835 -1.17797 -21.56049 -5.05386 -5.49546 29.49194 99.94273 9.80923 2.35061 -23.86051 4.39919 8.27304 32.47596 -135.2 25.15684 -7.1254 28.00459 -3.05612 -12.69755 -20.56992 -6.40414 -3.31735 -3.83357 33.84714 4.79423 8.02159 -24.50867 -6.44837 2.0924 3.25091
0.00454 0.0008 0.00117 -175.6795 -28.98615 0.93589 43.7671 -0.86964 -7.17567 -11.97014 3.87754 -1.17955 -21.43168 -4.82058 -6.68789 29.37788 106.09851 11.6151 3.32404 -23.87253 4.52071 7.82559 32.41376 -134.48924 25.23864 -6.86703 28.052 -3.03889 -12.5453 -20.57129 -6.40771 -3.3191 -3.83514 33.87795 4.82112 8.10124 -24.53423 -6.44859 2.10584 3.25565
0.0048 0.00085 0.00146 -175.80418 -28.98746 0.88698 43.72574 -0.85287 -7.13969 -11.97333 3.95179 -1.18103 -21.32435 -4.67453 -7.50958 29.28318 110.62548 12.97175 4.03209 -23.8755 4.60645 7.5194 32.35187 -134.37535 25.46945 -6.73015 28.0952 -3.02928 -12.44288 -20.57308 -6.40862 -3.31668 -3.8346 33.9079 4.84478 8.16404 -24.55759 -6.44914 2.11873 3.26041
0.00507 0.0009 0.00169 -175.92075 -28.99182 0.83965 43.68469 -0.83752 -7.0997 -11.97404 4.01896 -1.18247 -21.198 -4.45494 -8.65468 29.17195 116.58597 14.73381 4.97135 -23.87531 4.68374 7.246 32.27546 -134.78104 25.91023 -6.65558 28.14428 -3.00986 -12.32049 -20.57624 -6.41116 -3.31785 -3.83578 33.94414 4.87419 8.22847 -24.58146 -6.44992 2.13156 3.26504
0.00532 0.00096 0.00206 -176.06074 -28.99037 0.78794 43.64424 -0.81896 -7.06571 -11.97989 4.10463 -1.18405 -21.10189 -4.34795 -9.29529 29.08754 120.31282 15.85719 5.55201 -23.88828 4.79895 6.82646 32.23371 -133.7436 25.81572 -6.38202 28.18305 -3.00784 -12.21373 -20.57625 -6.41166 -3.3135 -3.83438 33.96712 4.8923 8.29771 -24.60534 -6.44999 2.14485 3.26999
0.00553 0.00104 0.00276 -176.25576 -28.97115 0.72686 43.60444 -0.79127 -7.04572 -12.00044 4.23549 -1.18595 -21.09919 -4.60613 -8.31792 29.07925 116.72918 14.9014 4.95649 -23.92194 4.99577 6.0653 32.26423 -128.83474 24.25301 -5.59138 28.18825 -3.0593 -12.19495 -20.56731 -6.40395 -3.2902 -3.82389 33.95247 4.88025 8.37374 -24.62828 -6.44848 2.15877 3.27554
0.00572 0.00112 0.00361 -176.47437 -28.94632 0.6612 43.56503 -0.76047 -7.03308 -12.02626 4.385 -1.18799 -21.12776 -4.97831 -6.82877 29.10025 110.89673 13.30266 3.99992 -23.9714 5.22946 5.1701 32.33613 -122.56981 22.18179 -4.61682 28.18374 -3.12838 -12.19202 -20.55556 -6.39423 -3.26138 -3.81081 33.92482 4.85619 8.45268 -24.65105 -6.44625 2.17322 3.28149
0.00593 0.0012 0.0044 -176.68418 -28.92501 0.59658 43.52544 -0.73161 -7.02093 -12.04922 4.52743 -1.18997 -21.14117 -5.28513 -5.62515 29.11168 106.43129 12.09198 3.26348 -24.01913 5.44705 4.34759 32.40041 -117.09836 20.40485 -3.75205 28.18594 -3.18736 -12.16686 -20.5453 -6.38639 -3.23652 -3.79968 33.90397 4.83634 8.52881 -24.67375 -6.44421 2.1876 3.2874
0.00612 0.00128 0.00513 -176.88585 -28.89967 0.53635 43.48628 -0.70071 -6.99279 -12.0735 4.66416 -1.19193 -21.15738 -5.6436 -4.21965 29.10576 100.64532 10.51408 2.31266 -24.03963 5.6609 3.46636 32.40732 -110.83126 18.34833 -2.76746 28.17807 -3.25386 -12.19829 -20.53337 -6.37484 -3.20619 -3.78566 33.87916 4.82222 8.61316 -24.69712 -6.44268 2.2011 3.29261
0.00633 0.00135 0.00603 -177.1109 -28.88133 0.46575 43.44591 -0.67305 -6.99909 -12.09707 4.81737 -1.19397 -21.1756 -5.92416 -3.10465 29.14384 96.9874 9.52394 1.70818 -24.12652 5.89503 2.67704 32.55646 -105.91159 16.75642 -1.99131 28.1895 -3.31019 -12.12122 -20.5252 -6.37022 -3.18535 -3.77671 33.8597 4.79285 8.67979 -24.71914 -6.43997 2.21678 3.2995
0.00658 0.00141 0.00734 -177.38514 -28.88411 0.36935 43.40471 -0.65743 -7.10491 -12.11066 5.00838 -1.19618 -21.19246 -5.95599 -2.91876 29.29336 100.21087 10.44007 2.2228 -24.34186 6.13613 2.2006 32.9809 -105.12043 16.59553 -1.84821 28.25136 -3.32467 -11.70431 -20.52174 -6.38729 -3.19604 -3.78463 33.85685 4.72782 8.70397 -24.73634 -6.43389 2.23619 3.30995
0.00686 0.00146 0.00883 -177.68397 -28.89399 0.26237 43.36152 -0.64466 -7.24367 -12.12466 5.21585 -1.19848 -21.21049 -5.90729 -3.03949 29.48748 105.56108 11.94419 3.08337 -24.63424 6.40451 1.81888 33.5696 -105.72612 16.91761 -1.92054 28.3345 -3.33042 -11.18523 -20.52441 -6.411 -3.21561 -3.79726 33.86015 4.6472 8.70908 -24.75251 -6.42671 2.25814 3.32224
0.00713 0.00151 0.01026 -177.97747 -28.90045 0.15911 43.31782 -0.62916 -7.36378 -12.1428 5.41781 -1.20071 -21.22741 -5.89984 -3.01567 29.66248 109.61822 13.09088 3.73324 -24.92297 6.68485 1.37707 34.15018 -105.64969 17.00499 -1.88733 28.41056 -3.34608 -10.73688 -20.52712 -6.43023 -3.22854 -3.80626 33.86147 4.5714 8.71751 -24.7697 -6.42026 2.28035 3.33432
0.00737 0.00158 0.01164 -178.24634 -28.90783 0.06023 43.28109 -0.61993 -7.50119 -12.14262 5.61216 -1.20297 -21.24704 -5.87648 -2.99641 29.83112 114.9529 14.59028 4.59233 -25.07428 6.85925 0.99872 34.44082 -105.72289 17.13796 -1.87906 28.47298 -3.33611 -10.18524 -20.51349 -6.45547 -3.25258 -3.82159 33.85869 4.50468 8.747 -24.78397 -6.41283 2.29672 3.3438
0.00769 0.00161 0.01315 -178.57301 -28.91466 -0.05018 43.22812 -0.59795 -7.60841 -12.18089 5.82596 -1.20531 -21.26191 -5.86584 -3.04698 30.02638 118.19128 15.5107 5.10777 -25.53691 7.26584 0.51702 35.38702 -105.8363 17.2981 -1.87332 28.57194 -3.37867 -9.82579 -20.5408 -6.46993 -3.25528 -3.82474 33.86633 4.41558 8.7301 -24.80479 -6.40715 2.32571 3.35909
0.00823 0.00154 0.01495 -179.04523 -28.91991 -0.19004 43.14027 -0.54367 -7.64037 -12.32388 6.08941 -1.20688 -21.25546 -5.90784 -3.21748 30.25938 114.86767 14.62251 4.54667 -26.78015 8.26015 -0.3113 37.99201 -105.72233 17.42469 -1.81805 28.74003 -3.55533 -10.00655 -20.63362 -6.4521 -3.20033 -3.79449 33.89717 4.26792 8.57207 -24.83778 -6.40694 2.39012 3.39041
0.00887 0.00142 0.01687 -179.57635 -28.92296 -0.34102 43.03348 -0.4759 -7.63786 -12.50639 6.37147 -1.20869 -21.24602 -5.96511 -3.44965 30.52373 109.42185 13.14597 3.63876 -28.34485 9.49619 -1.23908 41.27216 -105.61632 17.57165 -1.7613 28.94821 -3.78704 -10.38515 -20.77623 -6.42353 -3.12313 -3.75165 33.9377 4.09848 8.37119 -24.87841 -6.4085 2.4669 3.42742
